<svg width="51" height="51" viewBox="0 0 51 51" fill="none" xmlns="http://www.w3.org/2000/svg">
<path d="M0 0H50.4423V50.4423H0V0Z" fill="white" fill-opacity="0.01"/>
<path d="M35.7303 6.30566H14.7127C10.0696 6.30566 6.30566 10.0696 6.30566 14.7127V35.7303C6.30566 40.3735 10.0696 44.1374 14.7127 44.1374H35.7303C40.3735 44.1374 44.1374 40.3735 44.1374 35.7303V14.7127C44.1374 10.0696 40.3735 6.30566 35.7303 6.30566Z" stroke="white" stroke-width="3" stroke-linejoin="round"/>
<path d="M25.2215 33.6286C29.8646 33.6286 33.6286 29.8646 33.6286 25.2215C33.6286 20.5784 29.8646 16.8145 25.2215 16.8145C20.5784 16.8145 16.8145 20.5784 16.8145 25.2215C16.8145 29.8646 20.5784 33.6286 25.2215 33.6286Z" stroke="white" stroke-width="3" stroke-linejoin="round"/>
<path d="M36.7805 15.7631C37.9413 15.7631 38.8822 14.8221 38.8822 13.6613C38.8822 12.5005 37.9413 11.5596 36.7805 11.5596C35.6197 11.5596 34.6787 12.5005 34.6787 13.6613C34.6787 14.8221 35.6197 15.7631 36.7805 15.7631Z" fill="white"/>
</svg>
